<svg width="211" height="212" viewBox="0 0 211 212" fill="none" xmlns="http://www.w3.org/2000/svg">
<path fill-rule="evenodd" clip-rule="evenodd" d="M35.1667 14.5667C29.5706 14.5667 24.2037 16.7897 20.2467 20.7467C16.2897 24.7037 14.0667 30.0706 14.0667 35.6667V70.8333H0V35.6667C0 26.3399 3.70505 17.3951 10.3001 10.8001C16.8951 4.20505 25.8399 0.5 35.1667 0.5L70.3333 0.5V14.5667H35.1667ZM175.833 14.5667H140.667V0.5H175.833C185.16 0.5 194.105 4.20505 200.7 10.8001C207.295 17.3951 211 26.3399 211 35.6667V70.8333H196.933V35.6667C196.933 30.0706 194.71 24.7037 190.753 20.7467C186.796 16.7897 181.429 14.5667 175.833 14.5667ZM70.3333 84.9H56.2667V70.8333H70.3333V84.9ZM154.733 84.9H140.667V70.8333H154.733V84.9ZM68.9267 122.88C73.185 128.558 78.7069 133.166 85.0549 136.34C91.4029 139.514 98.4027 141.167 105.5 141.167C112.597 141.167 119.597 139.514 125.945 136.34C132.293 133.166 137.815 128.558 142.073 122.88L153.327 131.32C129.413 163.209 81.5867 163.209 57.6733 131.32L68.9267 122.88ZM0 176.333V141.167H14.0667V176.333C14.0667 181.929 16.2897 187.296 20.2467 191.253C24.2037 195.21 29.5706 197.433 35.1667 197.433H70.3333V211.5H35.1667C25.8399 211.5 16.8951 207.795 10.3001 201.2C3.70505 194.605 0 185.66 0 176.333ZM211 141.167V176.333C211 185.66 207.295 194.605 200.7 201.2C194.105 207.795 185.16 211.5 175.833 211.5H140.667V197.433H175.833C181.429 197.433 186.796 195.21 190.753 191.253C194.71 187.296 196.933 181.929 196.933 176.333V141.167H211Z" fill="#00358C"/>
</svg>
